<svg width="1680" height="172" viewBox="0 0 1680 172" fill="none" xmlns="http://www.w3.org/2000/svg">
<path d="M0.000154044 2.85511H53.535C75.9007 2.85511 92.4767 9.99308 103.263 24.269C114.049 38.545 119.442 59.0865 119.442 85.8936C119.442 112.701 114.049 133.242 103.263 147.518C92.4767 161.794 75.9007 168.932 53.535 168.932H0.000154044V2.85511ZM51.1557 140.856C61.7833 140.856 69.5558 137.446 74.4731 130.625C79.3904 123.804 81.849 113.89 81.849 100.883V70.6659C81.849 57.8176 79.3904 47.983 74.4731 41.1623C69.5558 34.3415 61.7833 30.9312 51.1557 30.9312H35.2142V140.856H51.1557ZM146.474 168.932V2.85511H252.592V32.1208H182.164V70.1901H250.212V99.4558H182.164V139.666H252.592V168.932H146.474ZM316.265 168.932L272.247 2.85511H311.982L331.492 87.3212L341.248 135.146H343.151L353.144 87.3212L372.893 2.85511H410.724L366.706 168.932H316.265ZM516.273 168.932L505.804 128.959H460.359L450.128 168.932H413.962L458.931 2.85511H509.373L554.342 168.932H516.273ZM484.152 37.3553H482.249L466.069 100.17H500.332L484.152 37.3553ZM603.026 58.5314H600.408V168.932H569.953V2.85511H612.781L650.612 113.256H653.229V2.85511H683.685V168.932H640.857L603.026 58.5314ZM766.868 171.787C752.91 171.787 740.775 169.487 730.465 164.887C720.154 160.287 711.827 154.022 705.482 146.091L726.182 123.249C732.21 129.911 738.792 134.828 745.93 138.001C753.227 141.173 760.603 142.76 768.058 142.76C776.624 142.76 783.127 140.856 787.569 137.049C792.01 133.242 794.231 127.77 794.231 120.632C794.231 114.763 792.486 110.321 788.996 107.308C785.665 104.294 779.955 102.152 771.865 100.883L754.496 98.0282C739.585 95.4902 728.799 90.0178 722.137 81.6108C715.475 73.0452 712.144 62.6555 712.144 50.4416C712.144 34.4208 717.378 22.0483 727.847 13.3241C738.316 4.44132 752.989 -9.2542e-05 771.865 -9.2542e-05C784.713 -9.2542e-05 795.896 1.98268 805.413 5.94822C814.931 9.91377 822.624 15.3069 828.493 22.1276L808.269 44.7313C803.827 39.814 798.593 36.0071 792.565 33.3105C786.537 30.4553 779.717 29.0277 772.103 29.0277C756.082 29.0277 748.072 35.6105 748.072 48.7761C748.072 54.4865 749.817 58.7693 753.306 61.6245C756.955 64.4797 762.824 66.6211 770.913 68.0487L788.282 71.1418C801.765 73.5211 812.155 78.597 819.452 86.3695C826.748 94.142 830.396 104.611 830.396 117.777C830.396 125.549 829.048 132.766 826.352 139.428C823.655 145.932 819.61 151.642 814.217 156.56C808.824 161.318 802.162 165.046 794.231 167.742C786.458 170.439 777.337 171.787 766.868 171.787ZM933.09 99.4558H891.214V168.932H855.286V2.85511H891.214V70.1901H933.09V2.85511H969.018V168.932H933.09V99.4558ZM1197.49 171.787C1175.28 171.787 1158.86 164.253 1148.23 149.184C1137.76 134.115 1132.53 113.018 1132.53 85.8936C1132.53 58.7693 1137.76 37.6726 1148.23 22.6035C1158.86 7.53445 1175.28 -9.2542e-05 1197.49 -9.2542e-05C1219.69 -9.2542e-05 1236.03 7.53445 1246.5 22.6035C1257.13 37.6726 1262.44 58.7693 1262.44 85.8936C1262.44 113.018 1257.13 134.115 1246.5 149.184C1236.03 164.253 1219.69 171.787 1197.49 171.787ZM1197.49 142.997C1207.64 142.997 1214.62 139.27 1218.42 131.815C1222.39 124.201 1224.37 113.652 1224.37 100.17V71.3797C1224.37 58.0555 1222.39 47.6658 1218.42 40.2105C1214.62 32.5967 1207.64 28.7898 1197.49 28.7898C1187.33 28.7898 1180.28 32.5967 1176.31 40.2105C1172.5 47.6658 1170.6 58.0555 1170.6 71.3797V100.408C1170.6 113.732 1172.5 124.201 1176.31 131.815C1180.28 139.27 1187.33 142.997 1197.49 142.997ZM1361.09 99.4558H1319.21V168.932H1283.29V2.85511H1319.21V70.1901H1361.09V2.85511H1397.02V168.932H1361.09V99.4558ZM1464.74 168.932H1429.52V2.85511H1493.76C1501.85 2.85511 1509.07 4.12408 1515.42 6.66202C1521.76 9.04135 1527.07 12.531 1531.36 17.1311C1535.8 21.7311 1539.13 27.2829 1541.35 33.7864C1543.57 40.2898 1544.68 47.5865 1544.68 55.6762C1544.68 67.4142 1542.14 77.4867 1537.07 85.8936C1531.99 94.3006 1524.77 99.8523 1515.42 102.549L1548.01 168.932H1508.99L1481.15 107.308H1464.74V168.932ZM1485.2 79.7074C1493.61 79.7074 1499.39 78.1211 1502.57 74.9487C1505.9 71.7763 1507.56 66.5418 1507.56 59.2452V52.1072C1507.56 44.8106 1505.9 39.5761 1502.57 36.4036C1499.39 33.2312 1493.61 31.645 1485.2 31.645H1464.74V79.7074H1485.2ZM1571.95 168.932V142.522H1607.64V29.2656H1571.95V2.85511H1679.02V29.2656H1643.33V142.522H1679.02V168.932H1571.95Z" fill="white"/>
</svg>
